# xmcd
#
# Track frame offsets:
#  150
#  18080
#  32906
#  49979
#  72503
#  88782
#
# Disc length: 1400 seconds
#
# Revision: 0
# Processed by: cddbd v1.5.1PL0 Copyright (c) Steve Scherf et al.
# Submitted via: Collectorz.com_Music_Collector 6.9
#
DISCID=4c057606
DTITLE=Bluestone - Fast-Track
DYEAR=2005
DGENRE=Blues -  Blues Electric
TTITLE0=Complete Unknown
TTITLE1=Innuendo
TTITLE2=Poor Man
TTITLE3=Three Times The Pain
TTITLE4=Every Hour
TTITLE5=Slowburn
EXTD=
EXTT0=
EXTT1=
EXTT2=
EXTT3=
EXTT4=
EXTT5=
PLAYORDER=
